PathFileType	4	(X/Y/Z)	C:\Users\Basilio\Documents\Thesis Gigler\squatting_fais\c3dfiles\041\SLS_pre_front2\markers_experimental.trc
DataRate	CameraRate	NumFrames	NumMarkers	Units	OrigDataRate	OrigDataStartFrame	OrigNumFrames
200.000000	200.000000	4	62	mm	200.000000	1068	1425
Frame#	Time	FHD			LBHD			RBHD			C7			T10			CLAV			LSHO			LUUPA			LMUPA			LDUPA			LLEP			LMEP			LRAD			LUL			LRFIN			RSHO			RUPA1			RMUPA			RDUPA			RLEP			RMEP			RRAD			RUL			RUFIN			LASI			RASI			USACR			LSACR			RSACR			LTHI1			LTHI2			LTHI3			LTHI4			LLFC			LMFC			LTIB1			LTIB2			LTIB3			LTIB4			LLMAL			LMMAL			LHEE			LMT1			LMT2			LMT5			RTHI			RTHI2			RTHI3			RTHI4			RLFC			RMFC			RTIB1			RTIB2			RTIB3			RTIB4			RLMAL			RMMAL			RHEE			RMT1			RMT2			RMT5			*61			
		X1	Y1	Z1	X2	Y2	Z2	X3	Y3	Z3	X4	Y4	Z4	X5	Y5	Z5	X6	Y6	Z6	X7	Y7	Z7	X8	Y8	Z8	X9	Y9	Z9	X10	Y10	Z10	X11	Y11	Z11	X12	Y12	Z12	X13	Y13	Z13	X14	Y14	Z14	X15	Y15	Z15	X16	Y16	Z16	X17	Y17	Z17	X18	Y18	Z18	X19	Y19	Z19	X20	Y20	Z20	X21	Y21	Z21	X22	Y22	Z22	X23	Y23	Z23	X24	Y24	Z24	X25	Y25	Z25	X26	Y26	Z26	X27	Y27	Z27	X28	Y28	Z28	X29	Y29	Z29	X30	Y30	Z30	X31	Y31	Z31	X32	Y32	Z32	X33	Y33	Z33	X34	Y34	Z34	X35	Y35	Z35	X36	Y36	Z36	X37	Y37	Z37	X38	Y38	Z38	X39	Y39	Z39	X40	Y40	Z40	X41	Y41	Z41	X42	Y42	Z42	X43	Y43	Z43	X44	Y44	Z44	X45	Y45	Z45	X46	Y46	Z46	X47	Y47	Z47	X48	Y48	Z48	X49	Y49	Z49	X50	Y50	Z50	X51	Y51	Z51	X52	Y52	Z52	X53	Y53	Z53	X54	Y54	Z54	X55	Y55	Z55	X56	Y56	Z56	X57	Y57	Z57	X58	Y58	Z58	X59	Y59	Z59	X60	Y60	Z60	X61	Y61	Z61	X62	Y62	Z62	

1069	5.34	-218.0866699218751	1774.189453125	-1121.925903320313	-389.3169555664064	1689.326904296875	-1192.091796875	-371.6115112304688	1707.517211914063	-1041.114868164063	-415.7727355957032	1550.2080078125	-1111.15087890625	-434.0858459472657	1237.880493164063	-1053.5966796875	-252.0466003417969	1494.923706054688	-1114.464233398438	-347.3436889648438	1522.3466796875	-1284.807861328125	-403.500213623047	1341.911499023438	-1368.489624023438	-367.5084838867188	1308.57373046875	-1372.471801757813	-417.9016723632814	1277.83544921875	-1390.252563476563	-424.4234313964845	1230.39990234375	-1401.670043945313	-425.054412841797	1187.12744140625	-1325.492797851563	-289.7590637207032	987.6407470703127	-1416.502807617188	-347.7441101074219	981.5808715820315	-1461.857543945313	-252.2933197021485	927.5315551757815	-1453.8330078125	-316.3042907714844	1563.9013671875	-948.5295410156252	-388.692108154297	1394.824829101563	-812.3096313476565	-340.8844909667969	1381.2861328125	-803.442077636719	-369.2348327636719	1338.821533203125	-773.7224731445315	-363.3672485351563	1297.863037109375	-751.8198242187501	-393.2602844238282	1250.651733398438	-824.091003417969	-242.3124694824219	1057.162475585938	-767.5469970703126	-281.3319396972657	1057.823486328125	-702.0379638671876	-195.8870086669922	996.7742309570315	-742.6935424804689	-265.6693420410157	1045.629760742188	-1148.224975585938	-268.6180725097657	1060.212036132813	-925.2698974609377	-443.703582763672	1128.32421875	-1039.377563476563	-459.4367675781251	1101.195068359375	-1064.43408203125	-460.8623962402345	1104.197143554688	-1009.807434082031	-362.0164794921876	831.6156005859377	-1198.875366210938	-318.1416320800782	759.4471435546876	-1188.996459960938	-271.6832580566407	769.1148681640627	-1180.864135742188	-340.0819702148438	704.6458129882814	-1173.929809570313	-304.0249633789063	531.3934326171876	-1143.845581054688	-300.8724365234376	521.7480468750001	-1025.353881835938	-290.0896911621094	343.4635314941407	-1074.444580078125	-338.9752502441407	300.0556335449219	-1134.5986328125	-301.5845642089844	294.1758422851563	-1107.41748046875	-314.5009460449219	220.3130187988282	-1069.373901367188	-380.8538208007813	131.3478088378907	-1104.5751953125	-345.4903259277344	136.5308074951172	-1022.1259765625	-447.8963317871095	117.3095703125	-1062.404663085938	-242.7828826904297	62.0981903076172	-1037.669189453125	-234.8455505371094	58.46365356445314	-1083.800903320313	-285.0634460449219	46.19419860839844	-1136.348266601563	-286.3071899414063	800.4952392578127	-843.8845214843752	-230.1946258544922	767.2865600585939	-850.8629150390627	-202.3165893554688	780.9652099609377	-861.0173339843752	-224.3093261718751	682.9635009765626	-860.3765869140627	-182.2383880615235	568.0486450195314	-864.069763183594	-166.5072479248047	552.8586425781251	-980.8352050781252	-130.0079650878907	405.1443481445314	-871.8216552734377	-205.3824157714844	321.5286865234376	-854.860290527344	-158.1699676513672	323.6853942871094	-857.6428833007815	-131.0801391601563	277.8995056152344	-885.5737304687502	-174.007308959961	153.1268310546875	-869.3022460937502	-147.7503662109375	177.3704986572266	-949.1753540039065	-226.2565307617188	105.3621826171875	-920.1414184570315	-12.95707798004151	137.3091278076172	-934.4320068359377	-7.403027057647707	141.5536651611328	-882.3660278320315	-45.81681823730469	108.4387130737305	-836.7980957031252	-4216.976074218751	853.139831542969	-3944.684814453126	
1070	5.345	-217.8252563476563	1774.3896484375	-1122.199951171875	-389.0478820800782	1689.329467773438	-1192.205078125	-371.1219787597657	1707.7001953125	-1041.259521484375	-415.2489013671876	1550.3662109375	-1111.109741210938	-433.5565185546876	1238.061889648438	-1053.336791992188	-251.2521972656251	1495.105834960938	-1114.539184570313	-347.1761474609376	1522.167602539063	-1284.937255859375	-404.1050720214845	1340.923217773438	-1367.290405273438	-368.1392822265626	1307.3583984375	-1370.756225585938	-418.9235229492189	1276.53369140625	-1388.124267578125	-425.8231201171876	1229.143798828125	-1398.835205078125	-426.5333251953126	1186.677124023438	-1322.130859375	-295.3390808105469	984.1113891601565	-1412.784790039063	-354.2103576660157	978.7968750000002	-1457.341918945313	-259.9567260742188	922.547302246094	-1449.694213867188	-315.6780700683594	1564.132202148438	-948.4362792968752	-389.1644592285157	1394.681030273438	-812.873962402344	-341.5077514648438	1380.51953125	-804.4631958007815	-370.3342590332032	1338.166748046875	-774.8422851562502	-364.8738098144532	1296.94140625	-753.4883422851564	-394.8584289550782	1250.59130859375	-826.1436157226565	-246.8320922851563	1054.604125976563	-768.603454589844	-286.6775207519532	1055.842529296875	-703.6026000976564	-201.7315216064454	993.3582763671877	-743.3361816406251	-265.1221618652344	1045.634521484375	-1147.925659179688	-268.2862548828126	1060.3173828125	-925.089294433594	-443.235809326172	1128.474609375	-1039.16455078125	-458.9756469726564	1101.339721679688	-1064.175170898438	-460.458953857422	1104.444702148438	-1009.561340332031	-361.8651428222657	831.7422485351565	-1198.589233398438	-317.9447937011719	759.5144653320314	-1188.640991210938	-271.6332702636719	769.1389160156252	-1180.6220703125	-340.1451110839844	704.7783813476564	-1173.677490234375	-304.1701965332032	531.4634399414064	-1143.652954101563	-301.2268066406251	521.9194946289064	-1024.9873046875	-290.2313537597657	343.5016174316407	-1074.259887695313	-336.1367797851563	300.7905273437501	-1135.265869140625	-300.6410217285157	295.3412475585938	-1107.717407226563	-314.5675659179688	220.3422851562501	-1069.364501953125	-380.8398742675782	131.3389587402344	-1104.539184570313	-345.4929199218751	136.486557006836	-1022.10009765625	-447.8547973632814	117.1460189819336	-1062.246337890625	-242.7857208251954	62.10930633544923	-1037.6611328125	-234.9658508300782	58.42510986328126	-1083.761962890625	-285.0374450683594	46.22979736328126	-1136.360229492188	-286.2989501953126	800.6318359375002	-843.5712890625002	-230.1143035888672	767.1755981445314	-850.6677856445315	-202.5091857910157	780.8378906250002	-860.6098632812502	-224.6151123046876	682.8873291015626	-860.023132324219	-182.864242553711	567.9849243164064	-863.6973876953127	-167.7717742919922	552.9364013671876	-980.3304443359377	-131.9382019042969	404.797088623047	-871.3147583007815	-208.1291198730469	321.8431396484376	-854.0031738281252	-160.854721069336	323.8247375488282	-856.8692626953127	-134.2772521972657	277.6719665527344	-884.5979614257815	-178.3054809570313	153.3403930664063	-868.3298339843752	-152.6445007324219	177.4683837890625	-947.9783325195315	-230.9205627441407	105.8106002807617	-919.1826171875002	-17.48032569885254	135.8435211181641	-933.549987792969	-11.42526340484619	139.7306060791016	-881.6094970703127	-50.36891937255861	107.2787551879883	-835.9156494140627	-4217.028808593751	853.186950683594	-3944.810058593751	
1071	5.350000000000001	-217.5579071044922	1774.547119140625	-1122.429321289063	-388.8447570800782	1689.314697265625	-1192.323608398438	-370.9660644531251	1707.740844726563	-1041.351196289063	-414.6661682128907	1550.517333984375	-1111.092163085938	-433.1074523925782	1238.298828125	-1053.065063476563	-250.9077148437501	1495.116088867188	-1114.61279296875	-346.9316711425782	1522.005126953125	-1285.1181640625	-404.7717895507814	1339.964233398438	-1365.948486328125	-368.9772644042969	1305.998901367188	-1369.010375976563	-419.4380187988282	1275.185180664063	-1385.919067382813	-427.1983947753907	1227.852294921875	-1395.86669921875	-427.8885192871095	1186.437133789063	-1318.866088867188	-300.9257202148438	980.507507324219	-1409.016479492188	-360.6103515625001	976.1917724609377	-1452.921508789063	-267.4064636230469	917.4905395507815	-1445.659912109375	-314.8677062988282	1564.28759765625	-948.3697509765627	-389.8615112304689	1394.5927734375	-813.4077148437502	-342.2149658203126	1379.911865234375	-805.2529296875002	-371.2205200195313	1337.437744140625	-776.1450805664065	-366.3911132812501	1296.267211914063	-754.9732055664064	-396.4360351562501	1250.5673828125	-828.0655517578127	-251.345199584961	1052.398681640625	-769.7180175781252	-291.8544921875001	1053.990356445313	-705.0576171875001	-207.8840637207032	990.000915527344	-744.1150512695314	-264.6003723144532	1045.661865234375	-1147.685180664063	-267.8160705566407	1060.589599609375	-924.8372192382815	-442.7659301757814	1128.670166015625	-1038.952758789063	-458.5133666992189	1101.49365234375	-1063.900390625	-459.986785888672	1104.617553710938	-1009.33203125	-361.6277465820313	831.9350585937502	-1198.285522460938	-317.8681030273438	759.6099243164064	-1188.42138671875	-271.5113220214844	769.2083740234377	-1180.383422851563	-340.0915527343751	704.9191284179689	-1173.41455078125	-304.4662170410157	531.5672607421876	-1143.499755859375	-301.5716552734376	522.0039062500001	-1024.635620117188	-290.3475341796876	343.5776672363282	-1074.152954101563	-336.5378112792969	300.7141723632813	-1135.146240234375	-300.6862792968751	295.5255737304688	-1107.625244140625	-314.6466674804688	220.4580230712891	-1069.301513671875	-380.8684082031251	131.3690032958985	-1104.517211914063	-345.4915161132813	136.485092163086	-1022.094970703125	-447.8157043457032	117.0921630859375	-1062.24072265625	-242.7765350341797	62.1155242919922	-1037.65673828125	-234.8772277832032	58.49927139282228	-1083.790771484375	-285.0825195312501	46.17770385742188	-1136.317626953125	-286.3981323242188	800.5979614257815	-843.203308105469	-230.0874023437501	767.0838012695314	-850.4505615234377	-202.8314361572266	780.3269653320315	-860.360778808594	-224.9716186523438	682.7854614257814	-859.5925292968752	-183.5357208251953	568.0831298828126	-863.1487426757815	-168.6373138427735	552.7774658203126	-979.8718261718752	-134.0457611083985	404.3511047363282	-870.3558349609377	-210.7536315917969	321.8890686035157	-853.174743652344	-163.7354125976563	323.5572204589844	-855.7974243164065	-137.5482940673828	277.3792114257813	-883.5850219726565	-182.3371734619141	153.0653839111328	-867.1846313476565	-156.1928253173828	176.9375915527344	-946.9368286132815	-235.4079742431641	106.2009963989258	-918.0327758789065	-21.61167716979981	134.1761322021485	-932.6791992187502	-15.61425495147705	138.0353698730469	-880.5592041015627	-54.9923667907715	106.0732040405274	-834.7816162109377	-4217.375488281251	853.2435302734377	-3944.646728515626	
1072	5.355	-217.2507934570313	1774.886108398438	-1122.723754882813	-388.4055786132814	1689.28125	-1192.428344726563	-370.6748352050782	1707.898315429688	-1041.442749023438	-414.1973266601564	1550.642211914063	-1111.093994140625	-432.6574707031251	1238.492919921875	-1052.843383789063	-250.5429992675782	1495.254028320313	-1114.692626953125	-346.6607360839844	1521.848510742188	-1285.278930664063	-405.2010498046876	1338.917724609375	-1364.712036132813	-369.6623840332032	1304.844482421875	-1367.282470703125	-420.4935913085939	1274.065795898438	-1383.851196289063	-428.6688842773439	1226.699096679688	-1393.083862304688	-429.2951965332032	1186.07763671875	-1315.517578125	-305.9400024414063	977.1065673828127	-1405.568725585938	-366.5664978027344	973.5601196289065	-1448.292724609375	-274.8871154785157	912.7598876953127	-1441.489501953125	-314.3282775878907	1564.498657226563	-948.1845703125002	-390.4868774414064	1394.419677734375	-813.981140136719	-342.9785461425782	1379.528930664063	-805.7253417968752	-372.1784667968751	1336.9169921875	-777.2822265625002	-368.2411193847657	1295.393920898438	-756.3663330078126	-398.0433654785157	1250.599609375	-829.9446411132815	-256.0260620117188	1050.330932617188	-770.7598266601565	-297.1778564453126	1052.311767578125	-706.4965820312501	-213.8958892822266	986.623229980469	-745.0959472656251	-264.2658386230469	1045.697631835938	-1147.374755859375	-267.4959716796876	1060.704956054688	-924.5708618164065	-442.291473388672	1128.801391601563	-1038.674926757813	-458.0696716308595	1101.65576171875	-1063.609741210938	-459.6562500000001	1104.932983398438	-1009.069641113281	-361.4653015136719	832.1399536132815	-1197.98974609375	-317.8689880371094	759.7677001953126	-1188.06591796875	-271.3687438964844	769.2058105468752	-1180.056274414063	-340.0952148437501	705.1013183593751	-1173.16650390625	-304.6650390625001	531.6091308593751	-1143.308227539063	-301.9236755371094	522.0617675781251	-1024.425415039063	-290.4907836914063	343.6208496093751	-1073.9892578125	-337.3585510253907	300.5150146484376	-1134.874389648438	-300.7910156250001	295.5993041992188	-1107.5087890625	-314.4323730468751	220.4023895263672	-1069.1669921875	-380.8671264648438	131.3664703369141	-1104.428466796875	-345.5189819335938	136.4735107421875	-1022.096313476563	-447.7774963378907	117.0860900878907	-1062.14306640625	-242.7612457275391	62.13454055786134	-1037.676635742188	-234.9827880859376	58.42813873291017	-1083.76220703125	-284.6380615234376	46.06730270385743	-1136.361083984375	-286.5624084472657	800.6998291015627	-842.9366455078127	-230.0669250488282	767.0252685546876	-850.1135864257815	-202.7952728271485	780.372985839844	-859.6287231445315	-225.3677368164063	682.5805664062501	-859.2431640625002	-184.0860900878907	568.0397949218751	-862.7377929687502	-169.327621459961	552.4188232421876	-979.3933105468752	-136.1285400390625	404.069793701172	-869.7095947265627	-213.5383605957032	322.4060058593751	-852.530212402344	-166.274169921875	323.3533630371094	-855.1121826171877	-140.7040405273438	276.9396362304688	-882.4361572265627	-186.2818145751953	153.0527038574219	-866.0623779296877	-160.1416931152344	176.7411804199219	-946.0281982421877	-240.4159240722657	106.7891616821289	-916.3110351562502	-25.69178771972657	132.4898529052735	-931.5251464843752	-19.94162940979004	136.2957763671875	-879.3739013671877	-59.39948654174806	104.6492996215821	-833.7444458007815	-4216.713378906251	853.1350708007815	-3944.808593750001	
